<svg xmlns="http://www.w3.org/2000/svg" width="679" height="679" viewBox="0 0 679 679" version="1.1"><path d="M 112.459 111.248 C 112.195 111.937, 112.097 134.775, 112.240 162 L 112.500 211.500 198.250 211.756 L 284 212.011 284 437.506 L 284 663 344.500 663 L 405 663 405 437.506 L 405 212.011 490.750 211.756 L 576.500 211.500 576.500 161 L 576.500 110.500 344.719 110.248 C 159.821 110.047, 112.842 110.249, 112.459 111.248" stroke="none" fill="#6bb3fb" fill-rule="evenodd"/><path d="M 303.500 1.536 C 143.421 19.051, 18.491 144.472, 1.482 304.739 C -0.392 322.391, -0.392 356.609, 1.482 374.261 C 18.551 535.101, 143.899 660.449, 304.739 677.518 C 322.391 679.392, 356.609 679.392, 374.261 677.518 C 509.027 663.216, 621.403 572.166, 662.952 443.613 C 670.365 420.675, 676.094 393.053, 677.614 372.909 C 677.987 367.975, 678.676 363.700, 679.146 363.410 C 679.616 363.120, 680 351.857, 680 338.382 C 680 324.907, 679.614 314.121, 679.141 314.413 C 678.669 314.705, 677.980 310.933, 677.610 306.032 C 676.094 285.948, 670.357 258.298, 662.952 235.387 C 621.403 106.834, 509.027 15.784, 374.261 1.482 C 357.351 -0.313, 320.134 -0.284, 303.500 1.536 M 112.459 111.248 C 112.195 111.937, 112.097 134.775, 112.240 162 L 112.500 211.500 198.250 211.756 L 284 212.011 284 437.506 L 284 663 344.500 663 L 405 663 405 437.506 L 405 212.011 490.750 211.756 L 576.500 211.500 576.500 161 L 576.500 110.500 344.719 110.248 C 159.821 110.047, 112.842 110.249, 112.459 111.248 M 0.434 339.500 C 0.433 353.250, 0.574 359.014, 0.747 352.308 C 0.919 345.603, 0.920 334.353, 0.748 327.308 C 0.576 320.264, 0.434 325.750, 0.434 339.500" stroke="none" fill="#235c6c" fill-rule="evenodd"/></svg>